#tb 0: 1/25
0,          0,          0,        1,    38016, 0x6951213f
0,          1,          1,        1,    38016, 0xd1bbf830
0,          2,          2,        1,    38016, 0x79dcc8cb
0,          3,          3,        1,    38016, 0xa426a50e
0,          4,          4,        1,    38016, 0x002275d6
0,          5,          5,        1,    38016, 0xab9a666e
0,          6,          6,        1,    38016, 0x9bd54be9
0,          7,          7,        1,    38016, 0x09003ed1
0,          8,          8,        1,    38016, 0x75e0340a
0,          9,          9,        1,    38016, 0x65ae3b23
0,         10,         10,        1,    38016, 0x4c1049a8
0,         11,         11,        1,    38016, 0x6e336a25
0,         12,         12,        1,    38016, 0x4d3579ee
0,         13,         13,        1,    38016, 0x81f89545
0,         14,         14,        1,    38016, 0xc9358e56
0,         15,         15,        1,    38016, 0x3fa69885
0,         16,         16,        1,    38016, 0x1ea49bea
0,         17,         17,        1,    38016, 0xce939241
0,         18,         18,        1,    38016, 0xbc278236
0,         19,         19,        1,    38016, 0xf11868d2
0,         20,         20,        1,    38016, 0xe4124537
0,         21,         21,        1,    38016, 0xd5831e16
0,         22,         22,        1,    38016, 0x9f5608e8
0,         23,         23,        1,    38016, 0x30ad0448
0,         24,         24,        1,    38016, 0x06a00523
0,         25,         25,        1,    38016, 0x25e50e24
0,         26,         26,        1,    38016, 0x2c220a92
0,         27,         27,        1,    38016, 0xd4b7185e
0,         28,         28,        1,    38016, 0x80f92d07
0,         29,         29,        1,    38016, 0x285a4586
